<svg width="20" height="20" viewBox="0 0 20 20" fill="none" xmlns="http://www.w3.org/2000/svg">
<path fill-rule="evenodd" clip-rule="evenodd" d="M3.54166 4.16667C3.54166 2.90102 4.56768 1.875 5.83333 1.875H12.489C12.9588 1.875 13.3998 2.10131 13.6738 2.48296L16.1847 5.98121C16.3626 6.22907 16.4583 6.52648 16.4583 6.83158V15.8333C16.4583 17.099 15.4323 18.125 14.1667 18.125H5.83333C4.56768 18.125 3.54166 17.099 3.54166 15.8333V4.16667ZM5.83333 3.125C5.25803 3.125 4.79166 3.59137 4.79166 4.16667V15.8333C4.79166 16.4086 5.25803 16.875 5.83333 16.875H14.1667C14.742 16.875 15.2083 16.4086 15.2083 15.8333V7.4142H12.5C12.1548 7.4142 11.875 7.13438 11.875 6.7892V3.125H5.83333Z" fill="black"/>
</svg>
