<svg width="20" height="20" viewBox="0 0 20 20" fill="none" xmlns="http://www.w3.org/2000/svg">
<path fill-rule="evenodd" clip-rule="evenodd" d="M11.9876 12.8715C9.77899 14.6403 6.54613 14.5011 4.49881 12.4538C2.30211 10.2571 2.30211 6.69554 4.49881 4.49884C6.69551 2.30214 10.2571 2.30214 12.4538 4.49884C14.5011 6.54616 14.6403 9.77902 12.8714 11.9876L17.1678 16.2839C17.4119 16.528 17.4119 16.9237 17.1678 17.1678C16.9237 17.4119 16.528 17.4119 16.2839 17.1678L11.9876 12.8715ZM5.3827 11.5699C3.67415 9.86137 3.67415 7.09127 5.3827 5.38273C7.09124 3.67418 9.86134 3.67418 11.5699 5.38273C13.2772 7.09002 13.2784 9.8573 11.5736 11.5661C11.5724 11.5674 11.5711 11.5686 11.5699 11.5699C11.5686 11.5711 11.5674 11.5724 11.5661 11.5737C9.85728 13.2785 7.08999 13.2772 5.3827 11.5699Z" fill="black"/>
</svg>
